HIERARCHY
ROOT mixamorig:Hips
{
	OFFSET -0.000008 104.274872 1.554316
	CHANNELS 6 Xposition Yposition Zposition Xrotation Yrotation Zrotation
	JOINT mixamorig:Spine
	{
		OFFSET -0.000005 10.181595 0.131519
		CHANNELS 6 Xposition Yposition Zposition Xrotation Yrotation Zrotation
		JOINT mixamorig:Spine1
		{
			OFFSET -0.000000 9.893959 -1.470707
			CHANNELS 6 Xposition Yposition Zposition Xrotation Yrotation Zrotation
			JOINT mixamorig:Spine2
			{
				OFFSET -0.000000 9.220757 -1.370641
				CHANNELS 6 Xposition Yposition Zposition Xrotation Yrotation Zrotation
				JOINT mixamorig:Neck
				{
					OFFSET 0.000001 16.740417 -2.049036
					CHANNELS 6 Xposition Yposition Zposition Xrotation Yrotation Zrotation
					JOINT mixamorig:Head
					{
						OFFSET 0.000000 9.617874 1.685006
						CHANNELS 6 Xposition Yposition Zposition Xrotation Yrotation Zrotation
						JOINT mixamorig:HeadTop_End
						{
							OFFSET 0.000002 22.037354 7.501101
							CHANNELS 6 Xposition Yposition Zposition Xrotation Yrotation Zrotation
							End Site
							{
								OFFSET 0.000168 2310.654297 -282.823242
							}
						}
					}
				}
				JOINT mixamorig:RightShoulder
				{
					OFFSET -4.569970 11.014908 -2.160885
					CHANNELS 6 Xposition Yposition Zposition Xrotation Yrotation Zrotation
					JOINT mixamorig:RightArm
					{
						OFFSET -10.592851 -0.524811 -2.232101
						CHANNELS 6 Xposition Yposition Zposition Xrotation Yrotation Zrotation
						JOINT mixamorig:RightForeArm
						{
							OFFSET -27.841511 0.000031 -0.000004
							CHANNELS 6 Xposition Yposition Zposition Xrotation Yrotation Zrotation
							JOINT mixamorig:RightHand
							{
								OFFSET -28.328831 -0.000015 0.000015
								CHANNELS 6 Xposition Yposition Zposition Xrotation Yrotation Zrotation
								JOINT mixamorig:RightHandThumb1
								{
									OFFSET -2.464806 -1.573990 2.681852
									CHANNELS 6 Xposition Yposition Zposition Xrotation Yrotation Zrotation
									JOINT mixamorig:RightHandThumb2
									{
										OFFSET -3.215179 -1.872803 1.924282
										CHANNELS 6 Xposition Yposition Zposition Xrotation Yrotation Zrotation
										JOINT mixamorig:RightHandThumb3
										{
											OFFSET -2.654831 -1.527969 1.512609
											CHANNELS 6 Xposition Yposition Zposition Xrotation Yrotation Zrotation
											JOINT mixamorig:RightHandThumb4
											{
												OFFSET -2.018814 -1.152008 1.108052
												CHANNELS 6 Xposition Yposition Zposition Xrotation Yrotation Zrotation
												End Site
												{
													OFFSET -188.809540 -114.533607 132.431396
												}
											}
										}
									}
								}
								JOINT mixamorig:RightHandIndex1
								{
									OFFSET -9.108284 -0.517868 2.259835
									CHANNELS 6 Xposition Yposition Zposition Xrotation Yrotation Zrotation
									JOINT mixamorig:RightHandIndex2
									{
										OFFSET -3.699989 0.000000 0.001215
										CHANNELS 6 Xposition Yposition Zposition Xrotation Yrotation Zrotation
										JOINT mixamorig:RightHandIndex3
										{
											OFFSET -2.850006 0.000031 -0.000522
											CHANNELS 6 Xposition Yposition Zposition Xrotation Yrotation Zrotation
											JOINT mixamorig:RightHandIndex4
											{
												OFFSET -2.772186 -0.000015 -0.000020
												CHANNELS 6 Xposition Yposition Zposition Xrotation Yrotation Zrotation
												End Site
												{
													OFFSET -277.218445 0.000000 -0.050231
												}
											}
										}
									}
								}
								JOINT mixamorig:RightHandMiddle1
								{
									OFFSET -9.532516 -0.000031 -0.000023
									CHANNELS 6 Xposition Yposition Zposition Xrotation Yrotation Zrotation
									JOINT mixamorig:RightHandMiddle2
									{
										OFFSET -3.700005 -0.000015 0.003713
										CHANNELS 6 Xposition Yposition Zposition Xrotation Yrotation Zrotation
										JOINT mixamorig:RightHandMiddle3
										{
											OFFSET -2.949974 0.000015 -0.002054
											CHANNELS 6 Xposition Yposition Zposition Xrotation Yrotation Zrotation
											JOINT mixamorig:RightHandMiddle4
											{
												OFFSET -2.946640 0.000000 -0.000156
												CHANNELS 6 Xposition Yposition Zposition Xrotation Yrotation Zrotation
												End Site
												{
													OFFSET -294.664337 0.000000 -0.113670
												}
											}
										}
									}
								}
								JOINT mixamorig:RightHandRing1
								{
									OFFSET -9.103600 -0.043076 -1.865134
									CHANNELS 6 Xposition Yposition Zposition Xrotation Yrotation Zrotation
									JOINT mixamorig:RightHandRing2
									{
										OFFSET -3.379288 0.000000 -0.001055
										CHANNELS 6 Xposition Yposition Zposition Xrotation Yrotation Zrotation
										JOINT mixamorig:RightHandRing3
										{
											OFFSET -2.889687 -0.000015 0.000379
											CHANNELS 6 Xposition Yposition Zposition Xrotation Yrotation Zrotation
											JOINT mixamorig:RightHandRing4
											{
												OFFSET -2.638809 -0.000015 0.000941
												CHANNELS 6 Xposition Yposition Zposition Xrotation Yrotation Zrotation
												End Site
												{
													OFFSET -263.880371 0.000000 0.516020
												}
											}
										}
									}
								}
								JOINT mixamorig:RightHandPinky1
								{
									OFFSET -8.076683 -0.486710 -3.806280
									CHANNELS 6 Xposition Yposition Zposition Xrotation Yrotation Zrotation
									JOINT mixamorig:RightHandPinky2
									{
										OFFSET -3.600014 -0.000015 -0.003747
										CHANNELS 6 Xposition Yposition Zposition Xrotation Yrotation Zrotation
										JOINT mixamorig:RightHandPinky3
										{
											OFFSET -2.099983 0.000000 -0.005739
											CHANNELS 6 Xposition Yposition Zposition Xrotation Yrotation Zrotation
											JOINT mixamorig:RightHandPinky4
											{
												OFFSET -2.115768 -0.000031 -0.003680
												CHANNELS 6 Xposition Yposition Zposition Xrotation Yrotation Zrotation
												End Site
												{
													OFFSET -211.577087 0.000000 -0.350686
												}
											}
										}
									}
								}
							}
						}
					}
				}
				JOINT mixamorig:LeftShoulder
				{
					OFFSET 4.570447 11.014725 -2.160855
					CHANNELS 6 Xposition Yposition Zposition Xrotation Yrotation Zrotation
					JOINT mixamorig:LeftArm
					{
						OFFSET 10.592371 -0.524597 -2.232119
						CHANNELS 6 Xposition Yposition Zposition Xrotation Yrotation Zrotation
						JOINT mixamorig:LeftForeArm
						{
							OFFSET 27.841532 -0.000031 0.000026
							CHANNELS 6 Xposition Yposition Zposition Xrotation Yrotation Zrotation
							JOINT mixamorig:LeftHand
							{
								OFFSET 28.328846 -0.000061 0.000022
								CHANNELS 6 Xposition Yposition Zposition Xrotation Yrotation Zrotation
								JOINT mixamorig:LeftHandThumb1
								{
									OFFSET 2.466141 -1.576172 2.681732
									CHANNELS 6 Xposition Yposition Zposition Xrotation Yrotation Zrotation
									JOINT mixamorig:LeftHandThumb2
									{
										OFFSET 3.217812 -1.872070 1.916482
										CHANNELS 6 Xposition Yposition Zposition Xrotation Yrotation Zrotation
										JOINT mixamorig:LeftHandThumb3
										{
											OFFSET 2.656029 -1.528778 1.514513
											CHANNELS 6 Xposition Yposition Zposition Xrotation Yrotation Zrotation
											JOINT mixamorig:LeftHandThumb4
											{
												OFFSET 2.020889 -1.154053 1.115139
												CHANNELS 6 Xposition Yposition Zposition Xrotation Yrotation Zrotation
												End Site
												{
													OFFSET 190.885437 -115.081749 130.048782
												}
											}
										}
									}
								}
								JOINT mixamorig:LeftHandIndex1
								{
									OFFSET 9.109314 -0.518021 2.259871
									CHANNELS 6 Xposition Yposition Zposition Xrotation Yrotation Zrotation
									JOINT mixamorig:LeftHandIndex2
									{
										OFFSET 3.699989 0.000000 -0.000322
										CHANNELS 6 Xposition Yposition Zposition Xrotation Yrotation Zrotation
										JOINT mixamorig:LeftHandIndex3
										{
											OFFSET 2.850006 0.000000 0.000352
											CHANNELS 6 Xposition Yposition Zposition Xrotation Yrotation Zrotation
											JOINT mixamorig:LeftHandIndex4
											{
												OFFSET 2.774864 -0.000031 -0.000027
												CHANNELS 6 Xposition Yposition Zposition Xrotation Yrotation Zrotation
												End Site
												{
													OFFSET 277.486267 0.000000 -0.009857
												}
											}
										}
									}
								}
								JOINT mixamorig:LeftHandMiddle1
								{
									OFFSET 9.533394 0.000061 0.000044
									CHANNELS 6 Xposition Yposition Zposition Xrotation Yrotation Zrotation
									JOINT mixamorig:LeftHandMiddle2
									{
										OFFSET 3.699989 -0.000015 -0.000231
										CHANNELS 6 Xposition Yposition Zposition Xrotation Yrotation Zrotation
										JOINT mixamorig:LeftHandMiddle3
										{
											OFFSET 2.949997 -0.000015 -0.000059
											CHANNELS 6 Xposition Yposition Zposition Xrotation Yrotation Zrotation
											JOINT mixamorig:LeftHandMiddle4
											{
												OFFSET 2.952896 0.000031 0.000063
												CHANNELS 6 Xposition Yposition Zposition Xrotation Yrotation Zrotation
												End Site
												{
													OFFSET 295.289337 0.000000 0.022810
												}
											}
										}
									}
								}
								JOINT mixamorig:LeftHandRing1
								{
									OFFSET 9.104523 -0.042999 -1.865074
									CHANNELS 6 Xposition Yposition Zposition Xrotation Yrotation Zrotation
									JOINT mixamorig:LeftHandRing2
									{
										OFFSET 3.150009 -0.000031 0.000043
										CHANNELS 6 Xposition Yposition Zposition Xrotation Yrotation Zrotation
										JOINT mixamorig:LeftHandRing3
										{
											OFFSET 2.949982 -0.000015 0.000040
											CHANNELS 6 Xposition Yposition Zposition Xrotation Yrotation Zrotation
											JOINT mixamorig:LeftHandRing4
											{
												OFFSET 2.644348 0.000000 0.000057
												CHANNELS 6 Xposition Yposition Zposition Xrotation Yrotation Zrotation
												End Site
												{
													OFFSET 264.434631 0.000000 0.012105
												}
											}
										}
									}
								}
								JOINT mixamorig:LeftHandPinky1
								{
									OFFSET 8.077789 -0.486847 -3.806259
									CHANNELS 6 Xposition Yposition Zposition Xrotation Yrotation Zrotation
									JOINT mixamorig:LeftHandPinky2
									{
										OFFSET 3.599953 0.000031 0.014727
										CHANNELS 6 Xposition Yposition Zposition Xrotation Yrotation Zrotation
										JOINT mixamorig:LeftHandPinky3
										{
											OFFSET 2.100021 0.000015 0.007705
											CHANNELS 6 Xposition Yposition Zposition Xrotation Yrotation Zrotation
											JOINT mixamorig:LeftHandPinky4
											{
												OFFSET 2.125504 0.000031 0.007517
												CHANNELS 6 Xposition Yposition Zposition Xrotation Yrotation Zrotation
												End Site
												{
													OFFSET 212.550781 0.000000 0.625752
												}
											}
										}
									}
								}
							}
						}
					}
				}
			}
		}
	}
	JOINT mixamorig:RightUpLeg
	{
		OFFSET -8.207787 -6.751648 -1.599560
		CHANNELS 6 Xposition Yposition Zposition Xrotation Yrotation Zrotation
		JOINT mixamorig:RightLeg
		{
			OFFSET -0.000002 -44.370117 0.345942
			CHANNELS 6 Xposition Yposition Zposition Xrotation Yrotation Zrotation
			JOINT mixamorig:RightFoot
			{
				OFFSET 0.000003 -44.423679 -3.043532
				CHANNELS 6 Xposition Yposition Zposition Xrotation Yrotation Zrotation
				JOINT mixamorig:RightToeBase
				{
					OFFSET -0.000002 -8.728671 10.710558
					CHANNELS 6 Xposition Yposition Zposition Xrotation Yrotation Zrotation
					JOINT mixamorig:RightToe_End
					{
						OFFSET -0.000001 -0.000679 9.278119
						CHANNELS 6 Xposition Yposition Zposition Xrotation Yrotation Zrotation
						End Site
						{
							OFFSET 0.000000 -0.067690 927.812134
						}
					}
				}
			}
		}
	}
	JOINT mixamorig:LeftUpLeg
	{
		OFFSET 8.207793 -6.751686 -1.599556
		CHANNELS 6 Xposition Yposition Zposition Xrotation Yrotation Zrotation
		JOINT mixamorig:LeftLeg
		{
			OFFSET -0.000004 -44.370014 0.346954
			CHANNELS 6 Xposition Yposition Zposition Xrotation Yrotation Zrotation
			JOINT mixamorig:LeftFoot
			{
				OFFSET -0.000001 -44.423672 -3.044401
				CHANNELS 6 Xposition Yposition Zposition Xrotation Yrotation Zrotation
				JOINT mixamorig:LeftToeBase
				{
					OFFSET -0.000002 -8.728669 10.710558
					CHANNELS 6 Xposition Yposition Zposition Xrotation Yrotation Zrotation
					JOINT mixamorig:LeftToe_End
					{
						OFFSET -0.000003 -0.000679 9.278133
						CHANNELS 6 Xposition Yposition Zposition Xrotation Yrotation Zrotation
						End Site
						{
							OFFSET 0.000000 -0.068021 927.813477
						}
					}
				}
			}
		}
	}
}
MOTION
Frames: 3
Frame Time: 0.033333
0.000006 104.270477 1.554256 0.000010 0.000003 -0.000113 -0.000005 10.181587 0.131522 0.000001 -0.000003 0.000084 -0.000000 9.893967 -1.470711 0.000001 0.000000 -0.000000 -0.000000 9.220802 -1.370642 0.000000 -0.000000 -0.000000 0.000001 16.740433 -2.049030 0.000000 -0.000000 -0.000000 0.000000 9.617859 1.685014 0.000000 0.000000 0.000000 0.000002 22.037384 7.501101 0.000000 -0.000000 0.000000 -4.569968 11.014880 -2.160881 0.000008 0.000001 -0.000038 -10.592844 -0.524818 -2.231822 77.747408 44.537041 -36.536663 -27.841520 -0.000004 0.000563 -42.644532 105.486350 54.332362 -28.328827 0.000009 0.000023 -0.000321 -0.000045 0.000010 -2.464428 -1.573685 2.682282 -53.963566 -173.456725 -28.772349 -3.215276 -1.872583 1.924655 152.529271 30.964198 1.248610 -2.654968 -1.527885 1.513082 143.951223 27.488204 -37.688974 -2.018834 -1.151998 1.108057 -0.000003 -0.000003 0.000002 -9.108360 -0.517543 2.260143 104.621696 14.146690 -18.307537 -3.700053 0.000336 0.001526 100.685465 10.945069 -13.157683 -2.850082 0.000356 -0.000258 97.728088 9.056440 -10.360718 -2.772164 -0.000000 -0.000019 -0.000000 -0.000001 0.000000 -9.532564 0.000290 0.000249 98.181620 14.822661 -17.236544 -3.700064 0.000332 0.003993 98.637316 11.111611 -12.803968 -2.950070 0.000348 -0.001795 97.432778 10.467124 -11.903568 -2.946625 0.000000 -0.000155 0.000000 0.000003 -0.000000 -9.103697 -0.042748 -1.864854 95.381406 19.198564 338.998135 -3.379333 0.000319 -0.000781 100.905608 11.824879 -14.318584 -2.889751 0.000341 0.000676 104.840494 9.282240 -12.104991 -2.638826 -0.000016 0.000932 0.000000 0.000001 0.000001 -8.076767 -0.486399 -3.806045 -282.190577 24.751803 340.048017 -3.600075 0.000252 -0.003530 -97.178074 -193.589746 168.336310 -2.100034 0.000308 -0.005505 86.957987 7.957920 -7.332611 -2.115799 -0.000049 -0.003680 0.000002 -0.000000 -0.000003 4.570446 11.014691 -2.160851 -0.000018 0.000010 -0.000021 10.592516 -0.524542 -2.232377 61.379577 -66.850859 42.783591 27.841713 -0.000075 -0.000101 94.636601 -103.567606 108.032665 28.328840 -0.000015 0.000026 0.000017 -0.000088 -0.000001 2.466203 -1.576083 2.681899 434.445766 145.636804 -135.286103 3.217864 -1.871967 1.916548 465.468704 159.110008 -155.351683 2.656061 -1.528741 1.514648 -54.124895 -5.090181 14.277876 2.020887 -1.154071 1.115146 0.000002 0.000002 0.000004 9.109258 -0.517841 2.260101 86.578549 -159.574843 158.352335 3.699924 0.000154 -0.000076 266.004285 -21.242945 -22.748435 2.849943 0.000193 0.000608 265.399185 -17.568222 -19.012188 2.774889 -0.000031 -0.000019 -0.000001 0.000001 -0.000001 9.533319 0.000078 0.000219 475.831686 -117.105793 498.045756 3.700053 0.000260 -0.000368 109.870601 -7.689214 10.934499 2.949978 0.000309 -0.000189 116.086346 4.522755 -7.240596 2.952873 0.000000 0.000061 0.000002 -0.000003 -0.000003 9.104458 -0.042993 -1.864923 479.295848 -110.315335 135.646696 3.149902 0.000389 -0.000111 119.741631 13.057373 -22.308525 2.949801 0.000363 -0.000153 123.193212 24.720323 -44.117114 2.644328 0.000015 0.000062 -0.000002 -0.000002 -0.000001 8.077724 -0.486850 -3.806091 306.479604 -51.405971 -27.191128 3.599796 0.000404 0.014579 129.733378 17.594118 -36.040733 2.099788 0.000330 0.007569 130.024563 26.428883 -53.249524 2.125518 0.000002 0.007515 -0.000000 0.000000 0.000001 -8.207786 -6.751667 -1.599560 -0.077001 -0.000003 0.000080 -0.000002 -44.370110 0.345938 0.153719 -0.000000 -0.000000 0.000000 -44.423679 -3.043532 -0.076700 0.000000 -0.000002 -0.000006 -8.728667 10.710559 -0.000009 -0.000000 -0.000000 -0.000001 -0.000679 9.278123 0.000000 -0.000000 -0.000000 8.207792 -6.751710 -1.599556 -0.074518 -0.000003 0.000081 -0.000002 -44.370014 0.346960 0.148822 0.000002 0.000000 -0.000001 -44.423664 -3.044403 -0.074314 0.000000 -0.000002 -0.000004 -8.728671 10.710558 0.000007 -0.000000 -0.000000 0.000000 -0.000680 9.278137 -0.000000 0.000000 -0.000001 
0.000006 104.270477 1.554256 0.000010 0.000003 -0.000113 -0.000005 10.181587 0.131522 0.000001 -0.000003 0.000084 -0.000000 9.893967 -1.470711 0.000001 0.000000 -0.000000 -0.000000 9.220802 -1.370642 0.000000 -0.000000 -0.000000 0.000001 16.740433 -2.049030 0.000000 -0.000000 -0.000000 0.000000 9.617859 1.685014 0.000000 0.000000 0.000000 0.000002 22.037384 7.501101 0.000000 -0.000000 0.000000 -4.569968 11.014880 -2.160881 0.000008 0.000001 -0.000038 -10.592856 -0.524797 -2.231836 77.719575 40.781202 -33.346111 -27.841528 -0.000009 0.000575 -42.658462 105.539188 54.393649 -28.328827 0.000022 0.000034 -0.000321 -0.000043 0.000009 -2.464530 -1.574193 2.682192 -119.018765 -48.361670 -60.884245 -3.214939 -1.873053 1.924614 240.343155 -38.817714 -57.690161 -2.654698 -1.528239 1.513036 231.508032 -24.258467 -56.231428 -2.018830 -1.152001 1.108054 -0.000002 -0.000003 0.000000 -9.108222 -0.517804 2.260437 213.656445 37.034238 95.815137 -3.699946 0.000077 0.001800 221.518539 31.745777 73.751495 -2.849975 0.000095 0.000065 218.547585 29.246491 73.456629 -2.772151 -0.000003 -0.000011 0.000005 -0.000002 0.000001 -9.532521 -0.000026 0.000536 157.965350 32.801727 -113.478286 -3.700086 0.000217 0.004183 134.589697 17.046974 -39.177497 -2.950059 0.000309 -0.001689 123.437583 8.977134 -16.589582 -2.946627 -0.000015 -0.000154 0.000000 0.000001 0.000001 -9.103621 -0.043031 -1.864572 154.906874 34.381731 251.587395 -3.379312 0.000280 -0.000596 136.016633 5.973825 -14.765790 -2.889676 0.000400 0.000753 126.614563 -4.119726 8.109764 -2.638816 -0.000023 0.000941 0.000002 0.000000 0.000003 -8.076681 -0.486660 -3.805725 -204.305179 33.321092 251.924916 -3.600026 0.000242 -0.003301 -41.076314 -183.519902 171.524095 -2.099923 0.000369 -0.005386 125.056884 -7.334117 14.373233 -2.115766 -0.000049 -0.003672 -0.000000 -0.000000 -0.000004 4.570446 11.014691 -2.160851 -0.000018 0.000010 -0.000021 10.592512 -0.524558 -2.232379 57.072695 -66.952185 39.556491 27.841700 -0.000066 -0.000104 98.628027 -103.808582 112.040524 28.328833 -0.000013 0.000023 0.000019 -0.000087 -0.000000 2.466213 -1.576098 2.681901 441.724070 153.669339 -142.821646 3.217836 -1.871950 1.916604 475.711201 166.230111 -160.794510 2.656053 -1.528746 1.514652 -42.384913 -12.785024 11.883621 2.020906 -1.154067 1.115152 0.000005 0.000004 0.000006 9.109274 -0.517927 2.260098 103.867213 -157.937114 162.643005 3.699939 0.000111 -0.000090 284.263375 -22.294024 -17.428180 2.849965 0.000090 0.000583 286.303116 -18.691166 -14.061491 2.774876 -0.000026 -0.000028 -0.000001 0.000000 0.000001 9.533394 0.000033 0.000146 531.408334 -130.259958 536.008548 3.700078 0.000259 -0.000341 121.824361 -12.853939 22.888521 2.949983 0.000367 -0.000146 136.223683 3.852808 -9.565693 2.952869 -0.000028 0.000065 -0.000004 -0.000000 -0.000001 9.104536 -0.043042 -1.865014 539.159506 -130.576551 179.613881 3.149879 0.000419 -0.000066 137.396099 13.129320 -32.883755 2.949657 0.000362 -0.000083 146.029485 26.839044 -75.988286 2.644326 0.000029 0.000080 -0.000000 0.000002 -0.000000 8.077794 -0.486908 -3.806203 354.475589 -32.106206 -1.476588 3.599720 0.000426 0.014662 151.807771 15.876655 -57.573748 2.099705 0.000298 0.007632 155.214328 23.125431 -85.930548 2.125499 -0.000002 0.007516 -0.000001 -0.000001 -0.000001 -8.207786 -6.751667 -1.599560 -0.077001 -0.000003 0.000080 -0.000002 -44.370110 0.345938 0.153719 -0.000000 -0.000000 0.000000 -44.423679 -3.043532 -0.076700 0.000000 -0.000002 -0.000006 -8.728667 10.710559 -0.000009 -0.000000 -0.000000 -0.000001 -0.000679 9.278123 0.000000 -0.000000 -0.000000 8.207792 -6.751710 -1.599556 -0.074518 -0.000003 0.000081 -0.000002 -44.370014 0.346960 0.148822 0.000002 0.000000 -0.000001 -44.423664 -3.044403 -0.074314 0.000000 -0.000002 -0.000004 -8.728671 10.710558 0.000007 -0.000000 -0.000000 0.000000 -0.000680 9.278137 -0.000000 0.000000 -0.000001 
0.000006 104.270477 1.554256 0.000010 0.000003 -0.000113 -0.000005 10.181587 0.131522 0.000001 -0.000003 0.000084 -0.000000 9.893967 -1.470711 0.000001 0.000000 -0.000000 -0.000000 9.220802 -1.370642 0.000000 -0.000000 -0.000000 0.000001 16.740433 -2.049030 0.000000 -0.000000 -0.000000 0.000000 9.617859 1.685014 0.000000 0.000000 0.000000 0.000002 22.037384 7.501101 0.000000 -0.000000 0.000000 -4.569968 11.014880 -2.160881 0.000008 0.000001 -0.000038 -10.592861 -0.524803 -2.231837 77.959404 40.819669 -33.513693 -27.841511 0.000013 0.000572 -42.327881 105.316142 53.809770 -28.328827 0.000009 0.000030 -0.000321 -0.000046 0.000006 -2.464743 -1.574229 2.682177 -100.857367 -13.115695 -33.035692 -3.215084 -1.873043 1.924640 245.037353 -14.898755 -41.321685 -2.654871 -1.528132 1.513102 211.857141 7.440957 -40.523922 -2.018838 -1.152012 1.108063 -0.000001 -0.000003 0.000004 -9.108263 -0.517810 2.260423 218.314566 18.544780 50.382119 -3.699973 0.000090 0.001795 216.666591 18.265449 51.742259 -2.850000 0.000104 0.000052 216.370066 15.745847 45.656451 -2.772176 -0.000003 -0.000029 -0.000001 -0.000002 -0.000001 -9.532532 -0.000015 0.000530 157.616819 26.767040 -101.029501 -3.700099 0.000298 0.004040 106.840155 17.667768 -23.521838 -2.950025 0.000350 -0.001846 83.785323 4.239030 -3.797044 -2.946616 -0.000008 -0.000152 0.000000 0.000001 -0.000000 -9.103651 -0.043052 -1.864586 153.882509 28.100798 265.797577 -3.379323 0.000331 -0.000759 109.117750 7.397858 -10.403705 -2.889657 0.000394 0.000506 80.086133 -11.914920 9.997172 -2.638808 -0.000029 0.000943 0.000000 0.000001 -0.000000 -8.076674 -0.486647 -3.805727 -204.007492 26.632441 264.400120 -3.599988 0.000316 -0.003388 -56.465799 -179.582243 181.353243 -2.099860 0.000403 -0.005566 94.254172 -17.044968 18.481544 -2.115783 -0.000041 -0.003677 -0.000001 0.000001 -0.000003 4.570446 11.014691 -2.160851 -0.000018 0.000010 -0.000021 10.592508 -0.524543 -2.232380 56.776996 -65.069348 38.044123 27.841702 -0.000072 -0.000093 108.640272 -103.804928 121.244054 28.328833 -0.000028 0.000024 0.000023 -0.000087 -0.000001 2.466171 -1.575917 2.681953 440.602444 209.620404 -166.670126 3.217830 -1.871923 1.916629 488.417047 200.517251 -171.112549 2.656015 -1.528740 1.514678 -22.299827 -42.330818 7.784579 2.020891 -1.154066 1.115149 0.000001 0.000005 0.000002 9.109291 -0.517982 2.260046 131.427142 -161.215373 170.303459 3.699954 0.000032 -0.000152 312.543173 -23.016761 -13.326857 2.850008 0.000045 0.000507 319.089253 -15.473315 -7.077591 2.774867 -0.000025 -0.000025 -0.000002 0.000001 -0.000004 9.533417 0.000039 0.000043 563.108553 -137.320666 545.121386 3.700089 0.000216 -0.000339 113.401262 -19.084899 26.866255 2.950021 0.000331 -0.000168 134.597115 -2.179566 0.358719 2.952857 -0.000039 0.000063 0.000002 -0.000003 0.000001 9.104568 -0.043014 -1.865110 574.763041 -135.083602 190.879882 3.149986 0.000358 -0.000100 127.590283 -6.783637 -7.277825 2.949895 0.000229 -0.000180 87.288732 6.073899 -22.516646 2.644323 0.000032 0.000056 0.000001 -0.000000 0.000001 8.077803 -0.486861 -3.806291 381.401233 -37.201646 0.486654 3.599856 0.000431 0.014597 132.771706 -2.204338 -23.140213 2.099821 0.000224 0.007498 87.217383 7.168969 -40.891000 2.125508 -0.000025 0.007508 0.000000 0.000003 0.000007 -8.207786 -6.751667 -1.599560 -0.077001 -0.000003 0.000080 -0.000002 -44.370110 0.345938 0.153719 -0.000000 -0.000000 0.000000 -44.423679 -3.043532 -0.076700 0.000000 -0.000002 -0.000006 -8.728667 10.710559 -0.000009 -0.000000 -0.000000 -0.000001 -0.000679 9.278123 0.000000 -0.000000 -0.000000 8.207792 -6.751710 -1.599556 -0.074518 -0.000003 0.000081 -0.000002 -44.370014 0.346960 0.148822 0.000002 0.000000 -0.000001 -44.423664 -3.044403 -0.074314 0.000000 -0.000002 -0.000004 -8.728671 10.710558 0.000007 -0.000000 -0.000000 0.000000 -0.000680 9.278137 -0.000000 0.000000 -0.000001 
